<?xml version="1.0" encoding="UTF-8" standalone="no"?>
<!DOCTYPE svg PUBLIC "-//W3C//DTD SVG 1.1//EN" "http://www.w3.org/Graphics/SVG/1.1/DTD/svg11.dtd">
<svg width="100%" height="100%" viewBox="0 0 1024 1024" version="1.1" xmlns="http://www.w3.org/2000/svg" xmlns:xlink="http://www.w3.org/1999/xlink" xml:space="preserve" xmlns:serif="http://www.serif.com/" style="fill-rule:evenodd;clip-rule:evenodd;stroke-linejoin:round;stroke-miterlimit:2;">
    <g transform="matrix(1.09866,0,0,1.09866,-77.0272,-88.0961)">
        <path d="M480.644,123.143C514.98,103.319 557.283,103.319 591.618,123.143C666.661,166.469 799.728,243.295 874.772,286.621C909.107,306.445 930.259,343.08 930.259,382.728L930.259,709.685C930.259,749.332 909.107,785.968 874.772,805.791C799.728,849.117 666.661,925.944 591.618,969.27C557.283,989.093 514.98,989.093 480.644,969.27C405.601,925.944 272.534,849.117 197.491,805.791C163.156,785.968 142.004,749.332 142.004,709.685L142.004,382.728C142.004,343.08 163.156,306.445 197.491,286.621C272.534,243.295 405.601,166.469 480.644,123.143Z" style="fill:rgb(50,129,70);"/>
    </g>
    <g transform="matrix(0.317519,0,0,0.557019,83.1323,70.3442)">
        <path d="M1079.57,562.541C1079.57,532.161 1036.3,507.496 983.008,507.496C929.713,507.496 886.445,532.161 886.445,562.541L886.445,1234.26C886.445,1264.64 929.713,1289.3 983.008,1289.3C1036.3,1289.3 1079.57,1264.64 1079.57,1234.26L1079.57,562.541Z" style="fill:rgb(47,90,64);"/>
    </g>
    <g transform="matrix(0.317519,0,0,0.707361,199.876,-123.492)">
        <path d="M1079.57,550.842C1079.57,526.919 1036.3,507.496 983.008,507.496C929.713,507.496 886.445,526.919 886.445,550.842L886.445,1245.96C886.445,1269.88 929.713,1289.3 983.008,1289.3C1036.3,1289.3 1079.57,1269.88 1079.57,1245.96L1079.57,550.842Z" style="fill:rgb(53,169,75);"/>
    </g>
    <g transform="matrix(0.317519,0,0,0.536254,316.764,-36.6561)">
        <path d="M1079.57,564.672C1079.57,533.116 1036.3,507.496 983.008,507.496C929.713,507.496 886.445,533.116 886.445,564.672L886.445,1232.12C886.445,1263.68 929.713,1289.3 983.008,1289.3C1036.3,1289.3 1079.57,1263.68 1079.57,1232.12L1079.57,564.672Z" style="fill:rgb(56,208,81);"/>
    </g>
    <g transform="matrix(0.317519,0,0,0.263512,433.364,314.99)">
        <path d="M1079.57,623.85C1079.57,559.633 1036.3,507.496 983.008,507.496C929.713,507.496 886.445,559.633 886.445,623.85L886.445,1172.95C886.445,1237.16 929.713,1289.3 983.008,1289.3C1036.3,1289.3 1079.57,1237.16 1079.57,1172.95L1079.57,623.85Z" style="fill:rgb(18,239,54);"/>
    </g>
    <g transform="matrix(0.317519,0,0,0.241835,-33.6117,395.036)">
        <path d="M1079.57,634.28C1079.57,564.306 1036.3,507.496 983.008,507.496C929.713,507.496 886.445,564.306 886.445,634.28L886.445,1162.52C886.445,1232.49 929.713,1289.3 983.008,1289.3C1036.3,1289.3 1079.57,1232.49 1079.57,1162.52L1079.57,634.28Z" style="fill:rgb(41,69,52);"/>
    </g>
    <g transform="matrix(0.989791,0,0,1.07054,-790.899,-565.304)">
        <ellipse cx="1080.44" cy="965.141" rx="30.977" ry="29.346" style="fill:rgb(41,69,52);"/>
    </g>
    <g transform="matrix(0.989791,0,0,1.07054,-323.923,-634.349)">
        <ellipse cx="1080.44" cy="965.141" rx="30.977" ry="29.346" style="fill:rgb(18,239,54);"/>
    </g>
</svg>
